HIERARCHY
ROOT Root
{
	OFFSET 0.00000 0.00000 0.00000
	CHANNELS 6 Xposition Yposition Zposition Zrotation Xrotation Yrotation
	JOINT Hips
	{
		OFFSET 0 0 0	
		CHANNELS 3 Zrotation Xrotation Yrotation
		JOINT Spine
		{
			OFFSET 0 4 0	
			CHANNELS 3 Zrotation Xrotation Yrotation
			JOINT Spine1
			{
				OFFSET 0 19.4 0	
				CHANNELS 3 Zrotation Xrotation Yrotation
				JOINT Spine2
				{
					OFFSET 0 16.6 0	
					CHANNELS 3 Zrotation Xrotation Yrotation
					JOINT LeftCollar
					{
						OFFSET 0 10 0	
						CHANNELS 3 Zrotation Xrotation Yrotation
						JOINT LeftArm
						{
							OFFSET 15.6 -2 3	
							CHANNELS 3 Zrotation Xrotation Yrotation
							JOINT LeftForeArm
							{
								OFFSET 3.5 -27 -1	
								CHANNELS 3 Zrotation Xrotation Yrotation
								JOINT LeftHand
								{
									OFFSET 1 -27 1	
									CHANNELS 3 Zrotation Xrotation Yrotation
									End Site
									{
										OFFSET 0 -15 0
									}
								}
							}
						}
					}
					JOINT RightCollar
					{
						OFFSET 0 10 0	
						CHANNELS 3 Zrotation Xrotation Yrotation
						JOINT RightArm
						{
							OFFSET -15.6 -2 3	
							CHANNELS 3 Zrotation Xrotation Yrotation
							JOINT RightForeArm
							{
								OFFSET -3.5 -27 -1	
								CHANNELS 3 Zrotation Xrotation Yrotation
								JOINT RightHand
								{
									OFFSET -1 -27 1	
									CHANNELS 3 Zrotation Xrotation Yrotation
									End Site
									{
										OFFSET 0 -15 0
									}
								}
							}
						}
					}
					JOINT Neck
					{
						OFFSET 0 10 0	
						CHANNELS 3 Zrotation Xrotation Yrotation
						JOINT Head
						{
							OFFSET 0 12.7 3	
							CHANNELS 3 Zrotation Xrotation Yrotation
							End Site
							{
								OFFSET 0 12.7 3
							}
						}
					}
				}
			}
		}
	}
	JOINT LeftHip
	{
		OFFSET 0 0 0	
		CHANNELS 3 Zrotation Xrotation Yrotation
		JOINT LeftUpLeg
		{
			OFFSET 8.8 -6 0	
			CHANNELS 3 Zrotation Xrotation Yrotation
			JOINT LeftLeg
			{
				OFFSET 0 -39 2	
				CHANNELS 3 Zrotation Xrotation Yrotation
				JOINT LeftFoot
				{
					OFFSET 0 -43 -2	
					CHANNELS 3 Zrotation Xrotation Yrotation
					JOINT LeftFootFront
					{
						OFFSET 0 -7 8.5	
						CHANNELS 3 Zrotation Xrotation Yrotation
						End Site
						{
							OFFSET 0 -0.5 9
						}
					}
				}
				JOINT LeftHeel
				{
					OFFSET 0 -43 -2	
					CHANNELS 3 Zrotation Xrotation Yrotation
					End Site
					{
						OFFSET 0 -7.5 -5
					}
				}
			}
		}
	}
	JOINT RightHip
	{
		OFFSET 0 0 0	
		CHANNELS 3 Zrotation Xrotation Yrotation
		JOINT RightUpLeg
		{
			OFFSET -8.8 -6 0	
			CHANNELS 3 Zrotation Xrotation Yrotation
			JOINT RightLeg
			{
				OFFSET 0 -39 2	
				CHANNELS 3 Zrotation Xrotation Yrotation
				JOINT RightFoot
				{
					OFFSET 0 -43 -2	
					CHANNELS 3 Zrotation Xrotation Yrotation
					JOINT RightFootFront
					{
						OFFSET 0 -7 8.5	
						CHANNELS 3 Zrotation Xrotation Yrotation
						End Site
						{
							OFFSET 0 -0.5 9
						}
					}
				}
				JOINT RightHeel
				{
					OFFSET 0 -43 -2	
					CHANNELS 3 Zrotation Xrotation Yrotation
					End Site
					{
						OFFSET 0 -7.5 -5
					}
				}
			}
		}
	}
}
MOTION
Frames: 6
Frame Time: 0.008
0 95.787 0 -0 0 -0 3.2942 7.2697 7.5727 -3.5964 -3.1193 -6.417 -3.5964 -3.1193 -6.417 -2.9973 -2.6477 -5.3764 -0 0 -0 0.62309 2.5322 41.102 3.0713 -4.3177 -32.004 2.7834 0.0063186 2.7043 -0 0 -0 10.028 3.1044 22.267 -1.7792 4.2653 3.102 -2.5631 -3.7519 3.5214 6.1554 2.2271 5.1528 3.3371 -0.98972 0.097436 3.2942 7.2697 7.5727 -4.8715 -4.7719 -3.6198 0.33539 -1.515 -0.39143 1.0941 -0.086647 1.9 -0 0 1.1714e-07 -0 0 -0 3.2942 7.2697 7.5727 -9.8909 -3.5919 16.557 5.9425 -3.0389 -27.905 -1.3762 -2.5988 8.1111 -0 0 1.0922e-07 -0 0 -0 
-0.0013084 95.787 -0.0021197 -0 0 -0 3.2955 7.2649 7.5707 -3.5979 -3.1178 -6.4175 -3.5979 -3.1178 -6.4175 -2.9985 -2.6464 -5.3768 -0 0 -0 0.62066 2.5299 41.116 3.0704 -4.3216 -32.004 2.7877 0.011035 2.6941 -0 0 -0 10.028 3.106 22.266 -1.7812 4.2677 3.1029 -2.5589 -3.7561 3.5248 6.1526 2.2268 5.1568 3.333 -0.9886 0.10077 3.2955 7.2649 7.5707 -4.8716 -4.7681 -3.6199 0.33487 -1.5142 -0.38879 1.0942 -0.086621 1.8998 0.00030011 0.0011007 -0.0013325 -0 0 -0 3.2955 7.2649 7.5707 -9.8905 -3.588 16.555 5.9427 -3.0376 -27.899 -1.377 -2.5992 8.1097 -0.0013835 9.6205e-05 0.00035514 -0 0 -0 
-0.0026836 95.787 -0.0043841 -0 0 -0 3.2973 7.259 7.5684 -3.5996 -3.116 -6.4182 -3.5996 -3.116 -6.4182 -3 -2.645 -5.3774 -0 0 -0 0.61729 2.5274 41.132 3.0692 -4.3265 -32.004 2.7866 0.014993 2.6804 -0 0 -0 10.028 3.1083 22.265 -1.7838 4.2705 3.1042 -2.5592 -3.7604 3.5244 6.1489 2.2266 5.1624 3.3279 -0.98712 0.10537 3.2973 7.259 7.5684 -4.8719 -4.7633 -3.6203 0.33426 -1.513 -0.38559 1.0946 -0.085556 1.8983 0.00039532 0.0013022 -0.0016365 -0 0 -0 3.2973 7.259 7.5684 -9.8901 -3.583 16.553 5.9431 -3.036 -27.892 -1.3794 -2.5997 8.1082 -0.0016631 8.2843e-05 0.00042544 -0 0 -0 
-0.0041287 95.787 -0.006802 -0 0 -0 3.2994 7.2518 7.5659 -3.6016 -3.1142 -6.4191 -3.6016 -3.1142 -6.4191 -3.0017 -2.6434 -5.3782 -0 0 -0 0.61267 2.5251 41.152 3.0676 -4.3326 -32.004 2.7851 0.020165 2.6635 -0 0 -0 10.027 3.1116 22.265 -1.7867 4.2737 3.106 -2.5596 -3.7651 3.5238 6.1446 2.2267 5.1697 3.322 -0.98519 0.11151 3.2994 7.2518 7.5659 -4.8722 -4.7576 -3.621 0.33358 -1.5114 -0.38178 1.0951 -0.084401 1.8964 0.00052061 0.0014943 -0.0019531 -0 0 -0 3.2994 7.2518 7.5659 -9.8895 -3.577 16.55 5.9438 -3.0341 -27.884 -1.3824 -2.6005 8.1065 -0.0019341 5.7275e-05 0.00049446 -0 0 -0 
-0.0056471 95.787 -0.0093823 -0 0 -0 3.3018 7.2433 7.5634 -3.6036 -3.1122 -6.4203 -3.6036 -3.1122 -6.4203 -3.0034 -2.6418 -5.3792 -0 0 -0 0.60666 2.5233 41.176 3.0657 -4.34 -32.004 2.7828 0.026781 2.6432 -0 0 -0 10.024 3.1158 22.264 -1.7901 4.2772 3.1083 -2.5603 -3.7699 3.5229 6.1396 2.2271 5.1791 3.3153 -0.98284 0.11939 3.3018 7.2433 7.5634 -4.8726 -4.7509 -3.622 0.33286 -1.5094 -0.37744 1.0958 -0.083206 1.8942 0.00065402 0.0016271 -0.0022359 -0 0 -0 3.3018 7.2433 7.5634 -9.8888 -3.5699 16.546 5.9446 -3.032 -27.874 -1.3861 -2.6013 8.1045 -0.0021564 2.1374e-06 0.00055349 -0 0 -0 
-0.0072416 95.788 -0.012134 -0 0 -0 3.3041 7.2339 7.5612 -3.6057 -3.1103 -6.4218 -3.6057 -3.1103 -6.4218 -3.0051 -2.6402 -5.3804 -0 0 -0 0.59923 2.5222 41.202 3.0633 -4.3485 -32.003 2.7798 0.034989 2.6198 -0 0 -0 10.021 3.1209 22.263 -1.7937 4.2809 3.111 -2.5614 -3.7742 3.5218 6.1343 2.2278 5.1904 3.3084 -0.98016 0.12896 3.3041 7.2339 7.5612 -4.8729 -4.7435 -3.6237 0.33214 -1.5067 -0.37275 1.0965 -0.082111 1.8917 0.00081811 0.0016463 -0.0024398 -0 0 -0 3.3041 7.2339 7.5612 -9.8878 -3.5619 16.542 5.9457 -3.0299 -27.863 -1.3904 -2.6021 8.1024 -0.0023045 -7.7092e-05 0.00059955 -0 0 -0 
